<svg width="32" height="32" viewBox="0 0 32 32" fill="none" xmlns="http://www.w3.org/2000/svg">
<circle cx="16" cy="16.1816" r="15" stroke="#4595E6" stroke-width="2"/>
<path d="M21.9782 22.16C18.9583 25.1799 15.5339 27.1547 12.4782 27.9405C9.39736 28.7327 6.88814 28.2831 5.39336 26.7883C3.89858 25.2935 3.44897 22.7843 4.24118 19.7035C5.02693 16.6478 7.00175 13.2234 10.0217 10.2034C13.0416 7.18349 16.4661 5.20866 19.5217 4.42292C22.6026 3.63071 25.1118 4.08032 26.6066 5.5751C28.1013 7.06988 28.551 9.5791 27.7587 12.6599C26.973 15.7156 24.9982 19.14 21.9782 22.16Z" stroke="#4595E6" stroke-width="2"/>
<path d="M21.9781 10.2033C24.998 13.2232 26.9728 16.6476 27.7586 19.7033C28.5508 22.7842 28.1012 25.2934 26.6064 26.7882C25.1116 28.2829 22.6024 28.7326 19.5216 27.9403C16.4659 27.1546 13.0415 25.1798 10.0215 22.1598C7.0016 19.1399 5.02678 15.7155 4.24103 12.6598C3.44882 9.57896 3.89843 7.06974 5.39321 5.57496C6.88799 4.08018 9.39722 3.63057 12.478 4.42278C15.5337 5.20852 18.9581 7.18335 21.9781 10.2033Z" stroke="#4595E6" stroke-width="2"/>
</svg>
