<svg width="131" height="32" viewBox="0 0 131 32" fill="none" xmlns="http://www.w3.org/2000/svg">
<g clip-path="url(#clip0_24_44497)">
<circle cx="16" cy="16.1816" r="15" stroke="#4595E6" stroke-width="2"/>
<path d="M21.9782 22.16C18.9583 25.1799 15.5339 27.1547 12.4782 27.9405C9.39736 28.7327 6.88814 28.2831 5.39336 26.7883C3.89858 25.2935 3.44897 22.7843 4.24118 19.7035C5.02693 16.6478 7.00175 13.2234 10.0217 10.2034C13.0416 7.18349 16.4661 5.20866 19.5217 4.42292C22.6026 3.63071 25.1118 4.08032 26.6066 5.5751C28.1013 7.06988 28.551 9.5791 27.7587 12.6599C26.973 15.7156 24.9982 19.14 21.9782 22.16Z" stroke="#4595E6" stroke-width="2"/>
<path d="M21.9781 10.2033C24.998 13.2232 26.9728 16.6476 27.7586 19.7033C28.5508 22.7842 28.1012 25.2934 26.6064 26.7882C25.1116 28.2829 22.6024 28.7326 19.5216 27.9403C16.4659 27.1546 13.0415 25.1798 10.0215 22.1598C7.0016 19.1399 5.02678 15.7155 4.24103 12.6598C3.44882 9.57896 3.89843 7.06974 5.39321 5.57496C6.88799 4.08018 9.39722 3.63057 12.478 4.42278C15.5337 5.20852 18.9581 7.18335 21.9781 10.2033Z" stroke="#4595E6" stroke-width="2"/>
<path d="M40 21.733V10.0967H44.6591C45.5152 10.0967 46.2292 10.2236 46.8011 10.4774C47.3731 10.7311 47.803 11.0834 48.0909 11.5342C48.3788 11.9811 48.5227 12.4963 48.5227 13.0796C48.5227 13.5342 48.4318 13.9338 48.25 14.2785C48.0682 14.6194 47.8182 14.8997 47.5 15.1194C47.1856 15.3353 46.8258 15.4887 46.4205 15.5796V15.6933C46.8636 15.7122 47.2784 15.8372 47.6648 16.0683C48.0549 16.2993 48.3712 16.6232 48.6136 17.0399C48.8561 17.4527 48.9773 17.9452 48.9773 18.5171C48.9773 19.1346 48.8239 19.6857 48.517 20.1705C48.214 20.6516 47.7652 21.0323 47.1705 21.3126C46.5758 21.5929 45.8428 21.733 44.9716 21.733H40ZM42.4602 19.7217H44.4659C45.1515 19.7217 45.6515 19.591 45.9659 19.3296C46.2803 19.0645 46.4375 18.7122 46.4375 18.2728C46.4375 17.9508 46.3598 17.6668 46.2045 17.4205C46.0492 17.1743 45.8277 16.9811 45.5398 16.841C45.2557 16.7008 44.9167 16.6308 44.5227 16.6308H42.4602V19.7217ZM42.4602 14.966H44.2841C44.6212 14.966 44.9205 14.9073 45.1818 14.7899C45.447 14.6686 45.6553 14.4982 45.8068 14.2785C45.9621 14.0588 46.0398 13.7955 46.0398 13.4887C46.0398 13.0683 45.8902 12.7293 45.5909 12.4717C45.2955 12.2141 44.875 12.0853 44.3295 12.0853H42.4602V14.966Z" fill="#267880"/>
<path d="M53.1813 21.8978C52.6245 21.8978 52.1283 21.8012 51.6927 21.608C51.2571 21.4111 50.9124 21.1213 50.6586 20.7387C50.4086 20.3524 50.2836 19.8713 50.2836 19.2955C50.2836 18.8107 50.3726 18.4035 50.5506 18.074C50.7287 17.7444 50.9711 17.4793 51.2779 17.2785C51.5847 17.0777 51.9332 16.9262 52.3234 16.824C52.7173 16.7217 53.1302 16.6497 53.562 16.608C54.0696 16.555 54.4787 16.5058 54.7893 16.4603C55.0999 16.4111 55.3252 16.3391 55.4654 16.2444C55.6055 16.1497 55.6756 16.0096 55.6756 15.824V15.7899C55.6756 15.43 55.562 15.1516 55.3347 14.9546C55.1112 14.7577 54.793 14.6592 54.3802 14.6592C53.9446 14.6592 53.598 14.7558 53.3404 14.949C53.0828 15.1383 52.9124 15.377 52.829 15.6649L50.5904 15.483C50.704 14.9527 50.9275 14.4944 51.2609 14.108C51.5942 13.7179 52.0241 13.4186 52.5506 13.2103C53.0809 12.9982 53.6946 12.8921 54.3915 12.8921C54.8764 12.8921 55.3404 12.949 55.7836 13.0626C56.2305 13.1762 56.6264 13.3524 56.9711 13.591C57.3196 13.8296 57.5942 14.1365 57.7949 14.5115C57.9957 14.8827 58.0961 15.3277 58.0961 15.8467V21.733H55.8006V20.5228H55.7324C55.5923 20.7955 55.4048 21.0361 55.1699 21.2444C54.9351 21.449 54.6529 21.6099 54.3234 21.7274C53.9938 21.841 53.6131 21.8978 53.1813 21.8978ZM53.8745 20.2274C54.2305 20.2274 54.5449 20.1573 54.8177 20.0171C55.0904 19.8732 55.3044 19.68 55.4597 19.4376C55.615 19.1952 55.6927 18.9205 55.6927 18.6137V17.6876C55.6169 17.7368 55.5127 17.7823 55.3802 17.824C55.2514 17.8618 55.1055 17.8978 54.9427 17.9319C54.7798 17.9622 54.6169 17.9906 54.454 18.0171C54.2912 18.0399 54.1434 18.0607 54.0109 18.0796C53.7268 18.1213 53.4787 18.1876 53.2665 18.2785C53.0544 18.3694 52.8896 18.4925 52.7722 18.6478C52.6548 18.7993 52.5961 18.9887 52.5961 19.216C52.5961 19.5455 52.7154 19.7974 52.954 19.9717C53.1965 20.1421 53.5033 20.2274 53.8745 20.2274Z" fill="#267880"/>
<path d="M64.0771 21.9035C63.1832 21.9035 62.4142 21.7141 61.7703 21.3353C61.1301 20.9527 60.6377 20.4224 60.293 19.7444C59.9521 19.0664 59.7816 18.2861 59.7816 17.4035C59.7816 16.5096 59.954 15.7255 60.2987 15.0512C60.6472 14.3732 61.1415 13.8448 61.7816 13.466C62.4218 13.0834 63.1832 12.8921 64.0657 12.8921C64.8271 12.8921 65.4938 13.0304 66.0657 13.3069C66.6377 13.5834 67.0904 13.9717 67.4237 14.4717C67.757 14.9717 67.9407 15.5588 67.9748 16.233H65.6907C65.6263 15.7974 65.4559 15.4471 65.1794 15.1819C64.9066 14.913 64.5487 14.7785 64.1055 14.7785C63.7305 14.7785 63.4029 14.8808 63.1226 15.0853C62.846 15.2861 62.6301 15.5796 62.4748 15.966C62.3195 16.3524 62.2419 16.8202 62.2419 17.3694C62.2419 17.9262 62.3176 18.3997 62.4691 18.7899C62.6245 19.18 62.8423 19.4774 63.1226 19.6819C63.4029 19.8865 63.7305 19.9887 64.1055 19.9887C64.382 19.9887 64.6301 19.9319 64.8498 19.8183C65.0733 19.7046 65.257 19.5399 65.401 19.324C65.5487 19.1043 65.6453 18.841 65.6907 18.5342H67.9748C67.937 19.2008 67.7551 19.788 67.4294 20.2955C67.1074 20.7993 66.6623 21.1933 66.0941 21.4774C65.526 21.7615 64.8536 21.9035 64.0771 21.9035Z" fill="#267880"/>
<path d="M71.8777 19.2217L71.8834 16.3183H72.2357L75.0311 13.0058H77.8095L74.0539 17.3921H73.48L71.8777 19.2217ZM69.6845 21.733V10.0967H72.105V21.733H69.6845ZM75.1391 21.733L72.5709 17.9319L74.1845 16.2217L77.9743 21.733H75.1391Z" fill="#267880"/>
<path d="M82.0994 21.733H77.9744V10.0967H82.1335C83.3039 10.0967 84.3115 10.3296 85.1562 10.7955C86.0009 11.2577 86.6505 11.9224 87.105 12.7899C87.5634 13.6573 87.7925 14.6952 87.7925 15.9035C87.7925 17.1156 87.5634 18.1573 87.105 19.0285C86.6505 19.8997 85.9971 20.5683 85.1448 21.0342C84.2963 21.5001 83.2812 21.733 82.0994 21.733ZM80.4346 19.6251H81.9971C82.7244 19.6251 83.3361 19.4963 83.8323 19.2387C84.3323 18.9774 84.7073 18.574 84.9573 18.0285C85.2111 17.4793 85.338 16.7709 85.338 15.9035C85.338 15.0436 85.2111 14.341 84.9573 13.7955C84.7073 13.2501 84.3342 12.8486 83.838 12.591C83.3418 12.3334 82.73 12.2046 82.0028 12.2046H80.4346V19.6251Z" fill="#357CDB"/>
<path d="M93.7068 21.9035C92.8091 21.9035 92.0364 21.7217 91.3886 21.358C90.7447 20.9906 90.2485 20.4717 89.9 19.8012C89.5515 19.127 89.3773 18.3296 89.3773 17.4092C89.3773 16.5115 89.5515 15.7236 89.9 15.0455C90.2485 14.3675 90.739 13.8391 91.3716 13.4603C92.0079 13.0815 92.7542 12.8921 93.6102 12.8921C94.186 12.8921 94.722 12.9849 95.2182 13.1705C95.7182 13.3524 96.1538 13.627 96.525 13.9944C96.9 14.3618 97.1917 14.824 97.4 15.3808C97.6083 15.9338 97.7125 16.5815 97.7125 17.324V17.9887H90.3432V16.4887H95.4341C95.4341 16.1402 95.3583 15.8315 95.2068 15.5626C95.0553 15.2936 94.8451 15.0834 94.5761 14.9319C94.311 14.7766 94.0023 14.699 93.65 14.699C93.2826 14.699 92.9568 14.7842 92.6727 14.9546C92.3924 15.1213 92.1727 15.3467 92.0136 15.6308C91.8545 15.9111 91.7731 16.2236 91.7693 16.5683V17.9944C91.7693 18.4262 91.8489 18.7993 92.0079 19.1137C92.1708 19.4281 92.4 19.6705 92.6954 19.841C92.9909 20.0115 93.3413 20.0967 93.7466 20.0967C94.0155 20.0967 94.2617 20.0588 94.4852 19.983C94.7087 19.9073 94.9 19.7936 95.0591 19.6421C95.2182 19.4906 95.3394 19.305 95.4227 19.0853L97.6614 19.233C97.5477 19.7709 97.3148 20.2406 96.9625 20.6421C96.614 21.0399 96.1632 21.3505 95.6102 21.574C95.061 21.7936 94.4265 21.9035 93.7068 21.9035Z" fill="#357CDB"/>
<path d="M107.354 13.0058L104.303 21.733H101.576L98.5245 13.0058H101.081L102.894 19.2501H102.985L104.792 13.0058H107.354Z" fill="#357CDB"/>
</g>
<defs>
<clipPath id="clip0_24_44497">
<rect width="130.341" height="32" fill="white"/>
</clipPath>
</defs>
</svg>
