<svg width="131" height="33" viewBox="0 0 131 33" fill="none" xmlns="http://www.w3.org/2000/svg">
<g clip-path="url(#clip0_27_968)">
<circle cx="16" cy="16.6539" r="15" stroke="#F5F9FC" stroke-width="2"/>
<path d="M21.9783 22.6323C18.9584 25.6522 15.534 27.627 12.4783 28.4128C9.39749 29.205 6.88826 28.7554 5.39348 27.2606C3.8987 25.7658 3.44909 23.2566 4.2413 20.1758C5.02705 17.1201 7.00187 13.6957 10.0218 10.6757C13.0418 7.65578 16.4662 5.68095 19.5219 4.89521C22.6027 4.103 25.1119 4.55261 26.6067 6.04739C28.1015 7.54217 28.5511 10.0514 27.7589 13.1322C26.9731 16.1879 24.9983 19.6123 21.9783 22.6323Z" stroke="#F0F8FE" stroke-width="2"/>
<path d="M21.9783 10.6757C24.9983 13.6957 26.9731 17.1201 27.7588 20.1757C28.5511 23.2566 28.1014 25.7658 26.6067 27.2606C25.1119 28.7554 22.6027 29.205 19.5218 28.4127C16.4661 27.627 13.0417 25.6522 10.0218 22.6322C7.00184 19.6123 5.02702 16.1879 4.24128 13.1322C3.44907 10.0514 3.89867 7.54215 5.39346 6.04737C6.88824 4.55259 9.39746 4.10298 12.4783 4.89519C15.534 5.68094 18.9584 7.65576 21.9783 10.6757Z" stroke="#F0F8FE" stroke-width="2"/>
<path d="M40 22.2051V10.5687H44.6591C45.5152 10.5687 46.2292 10.6956 46.8011 10.9494C47.3731 11.2032 47.803 11.5555 48.0909 12.0062C48.3788 12.4532 48.5227 12.9683 48.5227 13.5517C48.5227 14.0062 48.4318 14.4058 48.25 14.7505C48.0682 15.0915 47.8182 15.3718 47.5 15.5915C47.1856 15.8074 46.8258 15.9608 46.4205 16.0517V16.1653C46.8636 16.1843 47.2784 16.3093 47.6648 16.5403C48.0549 16.7714 48.3712 17.0952 48.6136 17.5119C48.8561 17.9248 48.9773 18.4172 48.9773 18.9892C48.9773 19.6066 48.8239 20.1577 48.517 20.6426C48.214 21.1237 47.7652 21.5043 47.1705 21.7846C46.5758 22.0649 45.8428 22.2051 44.9716 22.2051H40ZM42.4602 20.1937H44.4659C45.1515 20.1937 45.6515 20.063 45.9659 19.8017C46.2803 19.5365 46.4375 19.1843 46.4375 18.7449C46.4375 18.4229 46.3598 18.1388 46.2045 17.8926C46.0492 17.6464 45.8277 17.4532 45.5398 17.313C45.2557 17.1729 44.9167 17.1028 44.5227 17.1028H42.4602V20.1937ZM42.4602 15.438H44.2841C44.6212 15.438 44.9205 15.3793 45.1818 15.2619C45.447 15.1407 45.6553 14.9702 45.8068 14.7505C45.9621 14.5308 46.0398 14.2676 46.0398 13.9608C46.0398 13.5403 45.8902 13.2013 45.5909 12.9437C45.2955 12.6861 44.875 12.5574 44.3295 12.5574H42.4602V15.438Z" fill="#E1F3F5"/>
<path d="M53.1813 22.3699C52.6245 22.3699 52.1283 22.2733 51.6927 22.0801C51.2571 21.8831 50.9124 21.5933 50.6586 21.2108C50.4086 20.8244 50.2836 20.3433 50.2836 19.7676C50.2836 19.2827 50.3726 18.8755 50.5506 18.546C50.7287 18.2165 50.9711 17.9513 51.2779 17.7505C51.5847 17.5498 51.9332 17.3983 52.3234 17.296C52.7173 17.1937 53.1302 17.1218 53.562 17.0801C54.0696 17.0271 54.4787 16.9778 54.7893 16.9324C55.0999 16.8831 55.3252 16.8112 55.4654 16.7165C55.6055 16.6218 55.6756 16.4816 55.6756 16.296V16.2619C55.6756 15.9021 55.562 15.6237 55.3347 15.4267C55.1112 15.2297 54.793 15.1312 54.3802 15.1312C53.9446 15.1312 53.598 15.2278 53.3404 15.421C53.0828 15.6104 52.9124 15.849 52.829 16.1369L50.5904 15.9551C50.704 15.4248 50.9275 14.9665 51.2609 14.5801C51.5942 14.1899 52.0241 13.8907 52.5506 13.6824C53.0809 13.4702 53.6946 13.3642 54.3915 13.3642C54.8764 13.3642 55.3404 13.421 55.7836 13.5346C56.2305 13.6483 56.6264 13.8244 56.9711 14.063C57.3196 14.3017 57.5942 14.6085 57.7949 14.9835C57.9957 15.3547 58.0961 15.7998 58.0961 16.3187V22.2051H55.8006V20.9949H55.7324C55.5923 21.2676 55.4048 21.5081 55.1699 21.7165C54.9351 21.921 54.6529 22.082 54.3234 22.1994C53.9938 22.313 53.6131 22.3699 53.1813 22.3699ZM53.8745 20.6994C54.2305 20.6994 54.5449 20.6293 54.8177 20.4892C55.0904 20.3452 55.3044 20.1521 55.4597 19.9096C55.615 19.6672 55.6927 19.3926 55.6927 19.0858V18.1596C55.6169 18.2089 55.5127 18.2543 55.3802 18.296C55.2514 18.3339 55.1055 18.3699 54.9427 18.404C54.7798 18.4343 54.6169 18.4627 54.454 18.4892C54.2912 18.5119 54.1434 18.5327 54.0109 18.5517C53.7268 18.5933 53.4787 18.6596 53.2665 18.7505C53.0544 18.8415 52.8896 18.9646 52.7722 19.1199C52.6548 19.2714 52.5961 19.4608 52.5961 19.688C52.5961 20.0176 52.7154 20.2695 52.954 20.4437C53.1965 20.6142 53.5033 20.6994 53.8745 20.6994Z" fill="#E1F3F5"/>
<path d="M64.0771 22.3755C63.1832 22.3755 62.4142 22.1862 61.7703 21.8074C61.1301 21.4248 60.6377 20.8945 60.293 20.2165C59.9521 19.5384 59.7816 18.7581 59.7816 17.8755C59.7816 16.9816 59.954 16.1975 60.2987 15.5233C60.6472 14.8452 61.1415 14.3168 61.7816 13.938C62.4218 13.5555 63.1832 13.3642 64.0657 13.3642C64.8271 13.3642 65.4938 13.5024 66.0657 13.779C66.6377 14.0555 67.0904 14.4437 67.4237 14.9437C67.757 15.4437 67.9407 16.0308 67.9748 16.7051H65.6907C65.6263 16.2695 65.4559 15.9191 65.1794 15.654C64.9066 15.385 64.5487 15.2505 64.1055 15.2505C63.7305 15.2505 63.4029 15.3528 63.1226 15.5574C62.846 15.7581 62.6301 16.0517 62.4748 16.438C62.3195 16.8244 62.2419 17.2922 62.2419 17.8415C62.2419 18.3983 62.3176 18.8718 62.4691 19.2619C62.6245 19.6521 62.8423 19.9494 63.1226 20.154C63.4029 20.3585 63.7305 20.4608 64.1055 20.4608C64.382 20.4608 64.6301 20.404 64.8498 20.2903C65.0733 20.1767 65.257 20.0119 65.401 19.796C65.5487 19.5763 65.6453 19.313 65.6907 19.0062H67.9748C67.937 19.6729 67.7551 20.26 67.4294 20.7676C67.1074 21.2714 66.6623 21.6653 66.0941 21.9494C65.526 22.2335 64.8536 22.3755 64.0771 22.3755Z" fill="#E1F3F5"/>
<path d="M71.8777 19.6937L71.8834 16.7903H72.2357L75.0311 13.4778H77.8095L74.0539 17.8642H73.48L71.8777 19.6937ZM69.6845 22.2051V10.5687H72.105V22.2051H69.6845ZM75.1391 22.2051L72.5709 18.404L74.1845 16.6937L77.9743 22.2051H75.1391Z" fill="#E1F3F5"/>
<path d="M82.0991 22.2051H77.9741V10.5687H82.1332C83.3037 10.5687 84.3112 10.8017 85.1559 11.2676C86.0006 11.7297 86.6503 12.3945 87.1048 13.2619C87.5631 14.1293 87.7923 15.1672 87.7923 16.3755C87.7923 17.5877 87.5631 18.6293 87.1048 19.5005C86.6503 20.3718 85.9968 21.0403 85.1446 21.5062C84.2961 21.9721 83.2809 22.2051 82.0991 22.2051ZM80.4343 20.0971H81.9968C82.7241 20.0971 83.3359 19.9683 83.8321 19.7108C84.3321 19.4494 84.7071 19.046 84.9571 18.5005C85.2109 17.9513 85.3378 17.243 85.3378 16.3755C85.3378 15.5157 85.2109 14.813 84.9571 14.2676C84.7071 13.7221 84.334 13.3206 83.8378 13.063C83.3415 12.8055 82.7298 12.6767 82.0025 12.6767H80.4343V20.0971Z" fill="#C4E2F9"/>
<path d="M93.7066 22.3755C92.8088 22.3755 92.0361 22.1937 91.3884 21.8301C90.7444 21.4627 90.2482 20.9437 89.8997 20.2733C89.5513 19.599 89.377 18.8017 89.377 17.8812C89.377 16.9835 89.5513 16.1956 89.8997 15.5176C90.2482 14.8396 90.7388 14.3111 91.3713 13.9324C92.0077 13.5536 92.7539 13.3642 93.61 13.3642C94.1857 13.3642 94.7217 13.457 95.2179 13.6426C95.7179 13.8244 96.1535 14.099 96.5247 14.4665C96.8997 14.8339 97.1914 15.296 97.3997 15.8528C97.6081 16.4058 97.7122 17.0536 97.7122 17.796V18.4608H90.3429V16.9608H95.4338C95.4338 16.6123 95.3581 16.3036 95.2066 16.0346C95.055 15.7657 94.8448 15.5555 94.5759 15.404C94.3107 15.2487 94.002 15.171 93.6497 15.171C93.2823 15.171 92.9566 15.2562 92.6725 15.4267C92.3922 15.5933 92.1725 15.8187 92.0134 16.1028C91.8543 16.3831 91.7729 16.6956 91.7691 17.0403V18.4665C91.7691 18.8983 91.8486 19.2714 92.0077 19.5858C92.1706 19.9002 92.3997 20.1426 92.6952 20.313C92.9907 20.4835 93.341 20.5687 93.7463 20.5687C94.0153 20.5687 94.2615 20.5308 94.485 20.4551C94.7085 20.3793 94.8997 20.2657 95.0588 20.1142C95.2179 19.9627 95.3391 19.7771 95.4225 19.5574L97.6611 19.7051C97.5475 20.243 97.3145 20.7127 96.9622 21.1142C96.6138 21.5119 96.163 21.8225 95.61 22.046C95.0607 22.2657 94.4263 22.3755 93.7066 22.3755Z" fill="#C4E2F9"/>
<path d="M107.354 13.4778L104.303 22.2051H101.575L98.5242 13.4778H101.081L102.894 19.7221H102.984L104.791 13.4778H107.354Z" fill="#C4E2F9"/>
</g>
<defs>
<clipPath id="clip0_27_968">
<rect width="130.341" height="32" fill="white" transform="translate(0 0.472168)"/>
</clipPath>
</defs>
</svg>
